TITLE ""
FILE "Disc5Track19.mp3" MP3
  TRACK 01 AUDIO
    TITLE "Disc5Track19_01"
    INDEX 01 00:00:00
  TRACK 02 AUDIO
    TITLE "Disc5Track19_02"
    INDEX 01 00:01:14
  TRACK 03 AUDIO
    TITLE "Disc5Track19_03"
    INDEX 01 00:03:03
  TRACK 04 AUDIO
    TITLE "Disc5Track19_04"
    INDEX 01 00:04:26
  TRACK 05 AUDIO
    TITLE "Disc5Track19_05"
    INDEX 01 00:08:47
  TRACK 06 AUDIO
    TITLE "Disc5Track19_06"
    INDEX 01 00:09:05
  TRACK 07 AUDIO
    TITLE "Disc5Track19_07"
    INDEX 01 00:10:22
  TRACK 08 AUDIO
    TITLE "Disc5Track19_08"
    INDEX 01 00:12:37
  TRACK 09 AUDIO
    TITLE "Disc5Track19_09"
    INDEX 01 00:13:52
  TRACK 10 AUDIO
    TITLE "Disc5Track19_10"
    INDEX 01 00:15:59
  TRACK 11 AUDIO
    TITLE "Disc5Track19_11"
    INDEX 01 00:16:17
  TRACK 12 AUDIO
    TITLE "Disc5Track19_12"
    INDEX 01 00:17:44
  TRACK 13 AUDIO
    TITLE "Disc5Track19_13"
    INDEX 01 00:19:00
  TRACK 14 AUDIO
    TITLE "Disc5Track19_14"
    INDEX 01 00:20:27
  TRACK 15 AUDIO
    TITLE "Disc5Track19_15"
    INDEX 01 00:20:68
  TRACK 16 AUDIO
    TITLE "Disc5Track19_16"
    INDEX 01 00:22:14
  TRACK 17 AUDIO
    TITLE "Disc5Track19_17"
    INDEX 01 00:25:16
  TRACK 18 AUDIO
    TITLE "Disc5Track19_18"
    INDEX 01 00:26:37
  TRACK 19 AUDIO
    TITLE "Disc5Track19_19"
    INDEX 01 00:32:32
  TRACK 20 AUDIO
    TITLE "Disc5Track19_20"
    INDEX 01 00:32:57
  TRACK 21 AUDIO
    TITLE "Disc5Track19_21"
    INDEX 01 00:33:70
  TRACK 22 AUDIO
    TITLE "Disc5Track19_22"
    INDEX 01 00:35:07
  TRACK 23 AUDIO
    TITLE "Disc5Track19_23"
    INDEX 01 00:36:18
  TRACK 24 AUDIO
    TITLE "Disc5Track19_24"
    INDEX 01 00:40:59
  TRACK 25 AUDIO
    TITLE "Disc5Track19_25"
    INDEX 01 00:41:15
  TRACK 26 AUDIO
    TITLE "Disc5Track19_26"
    INDEX 01 00:42:28
  TRACK 27 AUDIO
    TITLE "Disc5Track19_27"
    INDEX 01 00:44:41
  TRACK 28 AUDIO
    TITLE "Disc5Track19_28"
    INDEX 01 00:45:52
  TRACK 29 AUDIO
    TITLE "Disc5Track19_29"
    INDEX 01 00:49:62
  TRACK 30 AUDIO
    TITLE "Disc5Track19_30"
    INDEX 01 00:50:20
  TRACK 31 AUDIO
    TITLE "Disc5Track19_31"
    INDEX 01 00:51:31
  TRACK 32 AUDIO
    TITLE "Disc5Track19_32"
    INDEX 01 00:53:44
  TRACK 33 AUDIO
    TITLE "Disc5Track19_33"
    INDEX 01 00:54:57
  TRACK 34 AUDIO
    TITLE "Disc5Track19_34"
    INDEX 01 00:55:19
  TRACK 35 AUDIO
    TITLE "Disc5Track19_35"
    INDEX 01 00:56:36
  TRACK 36 AUDIO
    TITLE "Disc5Track19_36"
    INDEX 01 00:58:19
  TRACK 37 AUDIO
    TITLE "Disc5Track19_37"
    INDEX 01 00:59:37
  TRACK 38 AUDIO
    TITLE "Disc5Track19_38"
    INDEX 01 01:01:24
  TRACK 39 AUDIO
    TITLE "Disc5Track19_39"
    INDEX 01 01:01:55
  TRACK 40 AUDIO
    TITLE "Disc5Track19_40"
    INDEX 01 01:02:58
  TRACK 41 AUDIO
    TITLE "Disc5Track19_41"
    INDEX 01 01:05:45
  TRACK 42 AUDIO
    TITLE "Disc5Track19_42"
    INDEX 01 01:06:48
  TRACK 43 AUDIO
    TITLE "Disc5Track19_43"
    INDEX 01 01:11:24
  TRACK 44 AUDIO
    TITLE "Disc5Track19_44"
    INDEX 01 01:11:53
  TRACK 45 AUDIO
    TITLE "Disc5Track19_45"
    INDEX 01 01:13:09
  TRACK 46 AUDIO
    TITLE "Disc5Track19_46"
    INDEX 01 01:15:20
  TRACK 47 AUDIO
    TITLE "Disc5Track19_47"
    INDEX 01 01:16:45
  TRACK 48 AUDIO
    TITLE "Disc5Track19_48"
    INDEX 01 01:19:65
